<svg width="50" height="32" viewBox="0 0 87 54" fill="none" xmlns="http://www.w3.org/2000/svg" className="transition-transform duration-500 hover:scale-110">
    <path d="M78.8289 53.9959L65.8448 29.2692H74.9296C76.8426 29.2692 78.4015 27.7103 78.4015 25.7972C78.4015 23.8842 76.8426 22.3253 74.9296 22.3253H61.7094L52.4089 39.9047H44.8545L24.0352 0H31.3168L48.648 33.2173L57.8264 15.874H74.9336C80.4081 15.874 84.861 20.3268 84.861 25.8013C84.861 30.7548 81.214 34.8698 76.4681 35.6106L86.1228 54H78.8329L78.8289 53.9959Z" fill="white" />
    <path d="M22.3294 39.9411H12.5649L0 15.8574H22.3294C28.968 15.8574 34.3692 21.2586 34.3692 27.8972C34.3692 34.5358 28.968 39.937 22.3294 39.937V39.9411ZM16.4682 33.506H22.3294C25.4187 33.506 27.9341 30.9906 27.9341 27.9013C27.9341 24.812 25.4187 22.2966 22.3294 22.2966H10.6193L16.4682 33.506Z" fill="white" />
  </svg>